<svg xmlns="http://www.w3.org/2000/svg" xmlns:xlink="http://www.w3.org/1999/xlink" version="1.1" x="0px" y="0px" viewBox="0 0 1000 1250" enable-background="new 0 0 1000 1000" xml:space="preserve"><g><path fill="#000000" d="M727.3,641.3c0-8.6-7-15.7-15.7-15.7l-423.3,0c-8.6,0-15.7,7-15.7,15.7l0,0.5l-16.2,115.3h487.2   l-16.3-115.5V641.3z"/><path fill="#000000" d="M880.7,242.9H119.3c-19.9,0-36.2,16.3-36.2,36.2v430.8c0,19.9,16.3,36.2,36.2,36.2h120.4l16.3-116   c0.1-12.4,10.2-22.4,22.6-22.4h442.6c12.4,0,22.5,10,22.6,22.4l16.3,116h120.4c19.9,0,36.2-16.3,36.2-36.2V279.2   C917,259.2,900.6,242.9,880.7,242.9z M889.7,537.3c0,11.5-9.4,20.8-20.8,20.8H131.1c-11.5,0-20.8-9.4-20.8-20.8V289.6   c0-11.5,9.4-20.8,20.8-20.8h737.8c11.5,0,20.8,9.4,20.8,20.8V537.3z"/><path fill="#000000" d="M710.2,421.9H289.8c-4.8,0-8.7,3.9-8.7,8.7v103.1c0,4.8,3.9,8.7,8.7,8.7h420.3c4.8,0,8.7-3.9,8.7-8.7V430.6   C718.8,425.8,714.9,421.9,710.2,421.9z M344.2,530.8c-26.9,0-48.7-21.8-48.7-48.7c0-26.9,21.8-48.7,48.7-48.7   c26.9,0,48.7,21.8,48.7,48.7C392.8,509,371,530.8,344.2,530.8z M658.9,530.8c-26.9,0-48.7-21.8-48.7-48.7   c0-26.9,21.8-48.7,48.7-48.7c26.9,0,48.7,21.8,48.7,48.7C707.5,509,685.7,530.8,658.9,530.8z"/></g><text x="0" y="1015" fill="#000000" font-size="5px" font-weight="bold" font-family="'Helvetica Neue', Helvetica, Arial-Unicode, Arial, Sans-serif">Created by Alvaro Cabrera</text><text x="0" y="1020" fill="#000000" font-size="5px" font-weight="bold" font-family="'Helvetica Neue', Helvetica, Arial-Unicode, Arial, Sans-serif">from the Noun Project</text></svg>