<svg xmlns="http://www.w3.org/2000/svg" xmlns:xlink="http://www.w3.org/1999/xlink" version="1.1" x="0px" y="0px" viewBox="0 0 106 132.5" style="enable-background:new 0 0 106 106;" xml:space="preserve"><g><path d="M98.8,28.3c0-0.2,0-0.9-0.6-1.3l-8.9-5.2l0-14.1c0-0.1-0.1-0.3-0.2-0.3C87.6,6.6,85.4,5,84.7,5c-0.1,0,0.2-0.1-5.2,2.9   l-1.2-0.7c-0.2-0.2-0.6-0.1-0.9,0l-53.8,31c-0.5,0.3-0.9,0.9-0.9,1.5v0.9l-6.1,3.5c-0.3,0.2-0.2,0.3-0.2,3.1l-7.9,4.6   c-0.9,0.5-1.6,1.8-1.6,2.8c0,0,0,0,0,0l0.1,31.8c0,0.6,0.2,1,0.6,1.3l22.5,13.1c0.5,0.3,1,0.2,1.4-0.1l65.6-37.9   c0.9-0.5,1.6-1.8,1.6-2.8L98.8,28.3z M88.5,22.9l-0.7,0.4c0-8.8,0-5.9,0-12.9c0-0.3-0.3-0.5-0.6-0.4c-4.4,2.5-4.2,2.4-4.3,2.5   c0-0.7,0-0.5,0-0.8l5.7-3.3L88.5,22.9z M82.9,18.1l-2.6-1.5l1.6-0.9c0.5-0.3,0.9-0.9,0.9-1.5v-0.7l0.1-0.1L82.9,18.1z M84.8,5.8   l3.3,1.9l-5.3,3.1c0-0.3,0.1-0.9-0.4-1.2l-2.1-1.2L84.8,5.8z M28.2,41.4c45.1-26,52.4-30.2,53.6-30.9c0.1-0.1,0.3,0,0.3,0.1   c0.1,1,0.3,3.8-0.2,4.2C48.5,34,27.8,46,27.7,46c0-0.1,0,0,0-3.9C27.7,41.9,27.9,41.5,28.2,41.4z M79.6,26.4l-5.9,3.4l-1.9-1.1   v-2.1l5.9-3.4l1.9,1.1V26.4z M82.9,26.3l1.9,1.1v2.1l-5.9,3.4L77,31.8v-2.1L82.9,26.3z M74.5,23.3l-5.9,3.4l-1.9-1.1v-1.2l6.6-3.8   l1.1,0.6V23.3z M59.1,37.6l-1.9-1.1v-1.1l3.2-1.9l0.3,0.2c0.5,0.3,1.4,0.8,1.7,0.9l0,1L59.1,37.6z M65.6,36.7l0.3,0.2   c0.5,0.3,1.4,0.8,1.6,0.9v1l-3.3,1.9l-1.9-1.1v-1.1L65.6,36.7z M46.5,41.7l3.2-1.9l1.9,1.1v0.9l-3.3,1.9l-1.9-1.1V41.7z M43.2,40.7   l-1.9-1.1v-0.5L45,37l1.5,0.9v0.9L43.2,40.7z M46.7,36.5V36l3.7-2.1l1.5,0.9v0.9l-3.3,1.9L46.7,36.5z M51.6,44.8l3.2-1.9l1.9,1.1   V45l-3.3,1.9l-1.9-1.1V44.8z M53.7,40.7l-1.9-1.1l0-1l3.3-1.9l1.9,1.1v0.9L53.7,40.7z M57,41.7l3.2-1.9l0.3,0.2   c0.5,0.3,1.4,0.8,1.6,0.9v1l-3.3,1.9L57,42.7V41.7z M57.3,32.6L54,34.5l-1.9-1.1v-0.6l3.7-2.1l1.5,0.9V32.6z M33.3,43.7l1,0.6V46   l-3.3,1.9l-1.3-0.8c0,0,0-0.1-0.1-0.1c-0.1-0.1-0.1-0.1-1-0.6L33.3,43.7z M27.8,46.8l1.1,0.6v1.6L25.6,51l-1.4-0.8   c-0.1-0.2,0-0.1-1.3-0.9l0-1.3l3.9-2.3C26.9,46.1,27,47,27.8,46.8z M23.5,50.6v1.6L23,52.5l0-2.3L23.5,50.6z M26.9,44.8l-4.5,2.6   c-0.3,0.2-0.2-0.6-0.2,13.7l-0.7,0.4l0-14.5c2.4-1.4,1.1-0.7,5.5-3.2V44.8z M23.2,41.4l3.3,1.9c-4.3,2.5-3.2,1.8-5.5,3.2l-3.3-1.9   L23.2,41.4z M16.6,48.2l0,11.3l-8.7-5.1C8.1,52.7,9,52.6,16.6,48.2z M9,86c0.1-0.1,0.6-2.4,0.7-28l0.6,19.3   c0.1,4.8,2.5,9.3,6.4,12.1c2.5,1.8,6.1,4.4,11.3,8L9,86z M29.7,67.1C29.7,67.1,29.7,67.1,29.7,67.1l-8.1-4.6c1.1-0.7,1.4-0.7,1.4-1   l0-4.6c2.2,1.3,2.3,1.4,2.5,1.3c4.6-2.6,3.9-1.8,3.9-3.8c1.7,1,0.6,1.2,5.2-1.5c0.3-0.2,0.2-0.3,0.2-1.6c1.7,1,0.6,1.2,5.2-1.5   c0.3-0.1,0.2-0.2,0.2-2.3c0-0.2-0.1-0.4-0.3-0.5c-2.3-1.4-2.4-1.5-2.7-1.3c-4.2,2.4-3.7,1.6-3.7,3.8c-1.8-1.1-0.7-1.2-5.1,1.3   c-0.5,0.2-0.4,0.6-0.4,1.8c-1.9-1.1-0.8-1.1-5.1,1.3c0,0,0,0,0,0v-0.3c1.6-0.9,1.4-0.5,1.3-2.3c1.2,0.7,1.2,0.8,1.5,0.6   c4.6-2.6,3.9-1.8,3.9-3.8c1.7,1,0.6,1.2,5.2-1.5c0.1-0.1,0.2-0.2,0.2-0.4c0-2.7,0.2-2.2-1.1-2.9l1-0.6l16.1,10.7L31.2,65   C30.6,65.3,29.9,66.1,29.7,67.1z M23.5,54.4l3.2-1.9l1.9,1.1v1.6l-3.3,1.9l-1.9-1.1L23.5,54.4z M28.9,51.3l3.2-1.9l1.9,1.1v1.6   l-3.3,1.9l-1.4-0.8c-0.1-0.2-0.2-0.2-0.5-0.4L28.9,51.3z M34.3,49.8v-1.6l3.2-1.9l1.9,1.1V49L36.2,51l-1.4-0.8   C34.7,50,34.6,50,34.3,49.8z M31.3,100.1c-0.6,0.3-0.8,0.1-0.8-0.5l-0.1-31.8c0-0.8,0.6-1.7,1.2-2.1l20-11.6l0.1,34.2L31.3,100.1z    M52.5,87.8l-0.1-34.2L76,40.1l0.1,34.2L52.5,87.8z M60.3,28.2l5.7-3.3c0,1.1,0,1.2,0.2,1.3c3,1.8,1.8,1.8,4.9,0l0,3l2.6,1.5   l2.5-1.5c0,0.1-0.1,0.1-0.1,0.2c0,2.8-0.1,2.7,0.2,2.9c2.2,1.3,2.4,1.5,2.7,1.3l6.3-3.6c0.1-0.1,0.2-0.2,0.2-0.3   c0-2.8,0.1-2.7-0.2-2.9c-2.5-1.4-2.4-1.5-2.7-1.3l-2.3,1.3l0-3l-2.7-1.5l-2.5,1.5c0-0.1,0.1-0.1,0.1-0.2c0-3.3,0.3-2.6-1.1-3.4   l5.3-3.1l3.4,2c0,2.8-0.1,2.8,0.2,3c4.4,2.6,4.2,2.5,4.5,2.4c1.9-1.1,1.7-0.8,1.7-1.6l7.5,4.3c-7.3,4.2-4.2,2.4-20.4,11.8   L60.3,28.2z M96.9,62.2l-20,11.6l-0.1-34.2l20.4-11.8c0.5-0.3,0.8-0.2,0.8,0.5C98.1,62.2,98.6,61.2,96.9,62.2z"/><path d="M75,66.5c0-0.5-0.3-0.6-1.1-1c-0.1,0-0.2-0.1-0.3-0.1l0.7-0.4c0.4-0.2,0.6-0.6,0.6-1l0-13.6c0-0.7-1.1-1.1-1.3-1.1   c1.7-1,1.3-0.5,1.3-5.2c0-0.5-0.4-0.7-1.1-1c-0.2-0.1-0.5-0.1-0.7,0L54.1,54c-0.3,0.2-0.6,0.6-0.6,1v3.8c0,0.3,0.1,0.5,0.3,0.6   c0.6,0.4,0.7,0.5,1,0.5c-0.6,0.3-1.3,0.6-1.3,1.4l0,13.6c0,0.3,0.1,0.5,0.3,0.6c0.3,0.1,0.9,0.5,1,0.5l-0.7,0.4   c-0.3,0.2-0.6,0.6-0.6,1l0,6.4c0,0.3,0.1,0.5,0.3,0.6c0.7,0.4,1,0.7,1.4,0.4l19.1-11c0.4-0.2,0.6-0.6,0.6-1L75,66.5z M74.2,66.7v1   c0,0-0.8-0.5-0.8-0.5L74.2,66.7z M70.6,68.8l1.1-0.6c-0.5,1.1,0.2,1.4,0.6,1.6c0.3,0.2,0.6,0.3,0.8,0.3l-1.8,1.1   c0.3-0.4,0.5-0.8,0.4-1.2C71.6,69.3,71.2,69.2,70.6,68.8z M67.8,70.4l1.1-0.6c-0.3,0.7-0.1,1.2,0.3,1.4c0.9,0.5,0.9,0.5,1.1,0.5   l-1.8,1.1c0.3-0.4,0.5-0.8,0.4-1.2C68.8,70.9,68.5,70.9,67.8,70.4z M65.6,72.4L65,72l1.1-0.6c-0.4,0.9,0,1.2,0.6,1.6   c0.3,0.2,0.6,0.3,0.8,0.3l-1.8,1.1C66.1,73.8,66.3,72.7,65.6,72.4z M62.9,74l-0.7-0.4l1.1-0.6c-0.3,0.7-0.1,1.2,0.3,1.4   c0.8,0.5,0.9,0.5,1.1,0.5L62.8,76C63.4,75.4,63.5,74.3,62.9,74z M59.4,75.3l1.1-0.6c-0.5,1.2,0.3,1.4,0.6,1.6   c0.3,0.2,0.6,0.3,0.8,0.3l-1.8,1.1c0.3-0.4,0.5-0.8,0.4-1.2C60.5,75.7,60,75.6,59.4,75.3z M56.6,76.9l1.1-0.6   c-0.1,0.2-0.1,0.4-0.2,0.6c0,0.7,0.5,0.8,0.7,1c0.3,0.2,0.6,0.3,0.8,0.3l-1.8,1.1c0.3-0.4,0.5-0.8,0.4-1.2   C57.7,77.3,57.2,77.2,56.6,76.9z M56.9,78.3c-0.1,0.4-0.4,0.7-0.6,0.8c-0.1,0-0.7-0.4-0.8-0.4c-0.2-0.2,0.3-1,0.6-1   C57,78,56.9,77.9,56.9,78.3z M58.3,77c-0.1-0.2,0.3-1,0.6-1c0.8,0.5,0.8,0.4,0.7,0.7c-0.1,0.4-0.3,0.6-0.6,0.8   C59,77.4,58.4,77,58.3,77z M61.1,70.5c0.1-0.3,0.3-0.6,0.6-0.7l0.8,0.4c0,0,0,0.2-0.1,0.6c-0.1,0.2-0.2,0.3-0.3,0.4l-0.1,0.1   c0,0,0,0,0,0l-0.3-0.2c-0.2-0.1-0.4-0.2-0.4-0.3C61.1,70.8,61.1,70.7,61.1,70.5z M61.4,75.5c-0.3-0.2-0.5-0.2-0.2-0.8   c0.1-0.1,0.3-0.4,0.5-0.4l0.7,0.4c0.1,0.1-0.1,0.9-0.6,1C61.8,75.8,61.6,75.7,61.4,75.5z M63.9,73.7c-0.1-0.2,0.3-1,0.6-1l0.7,0.4   c0.1,0.1-0.1,0.8-0.6,1C64.6,74.2,64,73.8,63.9,73.7z M66.7,72.1c-0.1-0.2,0.3-1,0.6-1l0.7,0.4c0.1,0.1-0.1,0.9-0.6,1   C67.4,72.6,67.4,72.5,66.7,72.1z M69.5,70.5c-0.2-0.2,0.3-1,0.6-1l0.7,0.4c0.1,0.1-0.1,0.8-0.6,1C70.2,70.9,69.6,70.6,69.5,70.5z    M72.3,68.9c-0.1-0.2,0.3-1,0.6-1c0,0,0,0,0,0l0.7,0.4c0,0.2-0.1,0.8-0.6,1C73,69.3,73,69.3,72.3,68.9z M55.1,55.4   c0-0.1,0.1-0.3,0.2-0.3l18.9-10.9l0,3.5c0,0.3,1-0.4-19.1,11.2L55.1,55.4z M55.1,61.8c0-0.1,0.1-0.3,0.2-0.3l18.9-10.9l0,13.4   c0,0.1-0.1,0.3-0.2,0.3l-10.7,6.2c0-0.1,0-0.1,0-0.1c0-0.2-0.1-0.4-0.2-0.6l10.3-5.9v-0.5l-2.2,1.3c0.4-0.5,0.7-1.3,0.3-1.8   l1.9-1.1v-0.5L71,62.5c-0.1,0-0.2-0.1-0.6-0.3c-0.8-0.5-1.9,0.8-1.8,1.7L59.7,69c0.3-0.5,0.5-1.1,0.1-1.6l13.5-7.8v-0.5l-13.9,8   c-0.8-0.4-0.9-0.6-1.5-0.3c-0.5,0.3-0.9,0.8-0.9,1.6l-0.7,0.4l0,0.5l0.9-0.5c0.2,0.3,0.9,0.7,1.2,0.8l-2.1,1.2v0.5l12.4-7.2   c0.2,0.3,1.1,0.8,1.4,0.8l-7.5,4.3l-0.6-0.4c-0.2-0.1-0.5-0.1-0.7,0c-0.5,0.2-0.9,0.8-1,1.2c0,0.2,0,0.3,0,0.5l-3.9,2.3l0,0.5   l4.1-2.3c0.1,0.2,0.3,0.3,0.6,0.5l-5.9,3.4L55.1,61.8z M69.9,64.1c-0.5-0.3-0.5-0.3-0.4-0.6c0.1-0.4,0.5-0.7,0.6-0.7   c0.6,0.4,0.6,0.4,0.8,0.4c0.1,0.1-0.1,0.6-0.4,0.9C70.2,64.4,70.2,64.3,69.9,64.1z M59,68.6c-0.2,0.3-0.4,0.4-0.4,0.4   c0,0-0.7-0.4-0.7-0.4c-0.1-0.1,0-0.7,0.6-1c0.1,0,0.2,0.1,0.8,0.4C59.3,68,59.2,68.3,59,68.6z M55.1,84.1l0-1.4   c0.9,0.5,0.7,0.4,0.9,0.5l1-0.6l0.1-0.2l0-1.1c-0.5-0.3-0.6-0.4-0.9-0.5l-1,0.6l-0.1,0.2v-2.3c0.9,0.5,0.9,0.5,1.1,0.5L56,80v0.5   l17.2-9.9l0-0.4c0.4-0.1,0.8-0.4,1-0.8l0,3.5C74.2,73.2,75.1,72.5,55.1,84.1z"/><path d="M59.1,79.2l-1,0.6L58,79.9l0,1.1c0.9,0.5,0.7,0.4,0.9,0.5l1-0.6l0.1-0.2l0-1.1C59,79.2,59.2,79.3,59.1,79.2z"/><path d="M61.9,77.5l-1,0.6l-0.1,0.2l0,1.1c0.9,0.5,0.7,0.4,0.9,0.5l1-0.6l0.1-0.2l0-1.1C61.9,77.5,62,77.6,61.9,77.5z"/><path d="M64.7,75.9l-1,0.6l-0.1,0.2l0,1.1c0.9,0.5,0.7,0.4,0.9,0.5l1-0.6l0.1-0.2l0-1.1C64.7,75.9,64.9,76,64.7,75.9z"/><path d="M67.5,74.3l-1,0.6L66.4,75l0,1.1c0.9,0.5,0.7,0.4,0.9,0.5l1-0.6l0.1-0.2l0-1.1C67.5,74.3,67.7,74.4,67.5,74.3z"/><path d="M70.4,72.6l-1,0.6l-0.1,0.2l0,1.1C70.2,75,70,75,70.1,75l1-0.6l0.1-0.2l0-1.1C70.4,72.6,70.5,72.7,70.4,72.6z"/><polygon points="55.6,57.7 55.6,58.2 74,47.6 74,47.1  "/><polygon points="74,46 55.6,56.6 55.6,57.2 74,46.6  "/><polygon points="74,44.9 55.6,55.5 55.6,56.1 74,45.5  "/><polygon points="68.4,55.7 68.4,58.9 69.1,58.5 69.1,55.4  "/><polygon points="67.2,56.5 67.2,59.6 67.8,59.3 67.7,56.1  "/><polygon points="69.8,54.3 69.8,58.1 70.5,57.7 70.5,53.9  "/><polygon points="71.2,54.2 71.2,57.3 71.8,57 71.7,53.8  "/><polygon points="56.4,62.7 56.5,65.8 57.1,65.4 57.1,62.3  "/><polygon points="65.8,56.6 65.8,60.4 66.5,60 66.5,56.2  "/><polygon points="59.2,61.1 59.2,64.2 59.8,63.9 59.7,60.8  "/><polygon points="60.4,60.4 60.5,63.5 61.1,63.1 61.1,60  "/><polygon points="57.8,61.2 57.8,65 58.5,64.6 58.5,60.8  "/><polygon points="64.4,58 64.4,61.2 65.1,60.8 65.1,57.7  "/><polygon points="61.8,58.9 61.8,62.7 62.5,62.3 62.5,58.5  "/><polygon points="63.2,58.8 63.2,61.9 63.8,61.6 63.7,58.5  "/><path d="M74.1,71.5c-0.9-0.5-0.7-0.4-0.9-0.5l-1,0.6l-0.1,0.2l0,1.1c0.9,0.5,0.7,0.4,0.9,0.5l1-0.6l0.1-0.2L74.1,71.5z"/><path d="M41.7,70.1C36.4,73.2,32,80.7,32,86.8c0,6.2,4.4,8.6,9.7,5.5c5.4-3.1,9.7-10.6,9.7-16.7C51.4,69.5,47.1,67,41.7,70.1z    M41.8,91.7c-5,2.9-9.1,0.6-9.2-5.2c0-5.8,4.1-12.8,9.1-15.7c5-2.9,9.1-0.6,9.2,5.2C50.9,81.8,46.8,88.8,41.8,91.7z"/><path d="M41.1,72c-6.7,3.9-10.4,15.5-5.3,18.4c5.2,3,13.4-6.2,13.4-13.8C49.2,71.6,45.5,69.4,41.1,72z M40.2,73.5   c3.5-2.1,6.5-0.4,6.5,3.7c0,9.4-12.5,17.1-12.5,8C34.2,80.4,37.9,74.9,40.2,73.5z"/><path d="M40.7,83.8c2.6-1.5,3.9-5.9,1.9-7.1c-2-1.2-5.2,2.2-5.2,5.2C37.4,83.9,39,84.9,40.7,83.8z M40.8,82.8   c-2.4,0.4-2.2-4-0.1-5.2C43.5,76,43.5,80.7,40.8,82.8z"/><path d="M87.8,43.2c-5.3,3.1-9.7,10.6-9.7,16.7c0,6.2,4.4,8.6,9.7,5.5c5.4-3.1,9.7-10.6,9.7-16.7C97.5,42.6,93.1,40.1,87.8,43.2z    M87.8,64.8c-5,2.9-9.1,0.6-9.2-5.2c0-5.8,4.1-12.8,9.1-15.7c5-2.9,9.1-0.6,9.2,5.2C97,54.8,92.9,61.9,87.8,64.8z"/><path d="M87.1,45c-4.2,2.5-7.7,8.4-7.7,13.3c0,5.1,3.7,7.2,8.1,4.6c4.2-2.4,7.7-8.4,7.7-13.3C95.2,44.6,91.5,42.5,87.1,45z    M86.3,46.6c3.5-2.1,6.5-0.4,6.5,3.7c0,7.4-8.7,15.4-12,10.6C79,56.4,82.9,48.5,86.3,46.6z"/><path d="M84.5,57.1c3,1.7,7.2-5.6,4.2-7.3C85.8,48.1,81.5,55.4,84.5,57.1z M86.9,55.9c-2.4,0.4-2.3-4-0.1-5.2   C89.6,49.1,89.6,53.7,86.9,55.9z"/><path d="M32.9,72C32.9,72,32.9,72,32.9,72c1.7,0.9,3.6-2.7,2.1-3.6l-0.8-0.4c-1.6-0.9-3.7,2.7-2.1,3.6C32.2,71.6,32.9,71.9,32.9,72   z M33.8,71.2c-1.2,0.7-0.4-2.2,0.7-2.2C35.1,69,34.8,70.7,33.8,71.2z"/><path d="M37,69.7C37,69.7,37,69.7,37,69.7c1.7,0.9,3.6-2.7,2.1-3.6c-0.8-0.5-1.2-0.8-2-0.4c-0.8,0.5-1.4,1.5-1.4,2.4   C35.7,69,36.1,69.2,37,69.7z M37.8,68.9c-1,0.6-0.7-1.5,0.4-2.1C39.3,66.2,38.9,68.3,37.8,68.9z"/><path d="M41,67.3c1.5,1,3.7-2.7,2.1-3.6c0,0,0,0,0,0c-0.8-0.4-1.2-0.8-2-0.3c-0.8,0.5-1.4,1.5-1.4,2.4C39.7,66.7,40.2,66.9,41,67.3   z M41.8,66.6c-1.4,0.8-0.1-2.7,0.8-2.2C43.1,64.6,42.7,66.1,41.8,66.6z"/><path d="M86.6,41.4C86.6,41.4,86.6,41.4,86.6,41.4c1.7,0.9,3.6-2.7,2.1-3.6L88,37.3c-1.1-0.6-2.6,1.1-2.6,2.5   C85.3,40.8,85.9,40.9,86.6,41.4z M87.5,40.6c-1,0.6-0.7-1.5,0.4-2.1C88.9,37.9,88.6,40,87.5,40.6z"/><path d="M90.7,39C90.7,39,90.7,39,90.7,39c1.2,0.6,2.7-1.1,2.7-2.5c0-1-0.5-1.1-1.3-1.6c-1.1-0.7-2.7,1.1-2.7,2.5   C89.4,38.4,89.8,38.5,90.7,39z M90.9,37.9c0-1.2,1.6-2.6,1.6-1.4C92.5,37.8,90.9,39.1,90.9,37.9z"/><path d="M93.9,36.3c0.1,0.1,0.9,0.5,0.8,0.4c1.6,0.9,3.7-2.8,2.1-3.6C96.6,33,97,33.2,96,32.6C94.4,31.8,92.4,35.4,93.9,36.3z    M95.5,35.9c-0.4,0.2-0.6,0.1-0.6-0.3c0-1.1,1.1-2,1.5-1.8C96.8,34,96.4,35.4,95.5,35.9z"/><path d="M34.6,57.3c1,0.6,1.2,0.8,1.5,0.6c4.5-2.6,3.9-1.7,3.9-3.8c1.7,1,0.6,1.2,5.2-1.5c0.3-0.2,0.2-0.2,0.2-2.5   c0-0.1-0.1-0.3-0.2-0.4c-2.4-1.4-2.4-1.5-2.8-1.3c-4.3,2.5-3.8,1.8-3.8,3.8c-1.9-1.1-0.8-1.2-5.1,1.3c-0.4,0.3-0.3,0.6-0.3,1.8   c-0.9-0.5-1.3-0.9-1.7-0.6c-3.3,1.9-3.8,2-3.8,2.6c0,2.9-0.6,2,2.5,3.7c0.3,0.2,0.2,0.1,4.1-2.2C34.7,58.8,34.6,58.7,34.6,57.3z    M39.5,51.2l3.2-1.9l1.9,1.1v1.6L41.3,54l-1.4-0.8c-0.1-0.2-0.2-0.2-0.5-0.4L39.5,51.2z M37.3,52.5l1.9,1.1v1.6l-3.3,1.9l-1.3-0.8   c0-0.1-0.2-0.2-0.5-0.5v-1.6L37.3,52.5z M30.5,60.3l-1.9-1.1v-1.7l3.2-1.9c0.9,0.5,1.7,1,1.9,1.1l0,1.7L30.5,60.3z"/></g><text x="0" y="121" fill="#000000" font-size="5px" font-weight="bold" font-family="'Helvetica Neue', Helvetica, Arial-Unicode, Arial, Sans-serif">Created by Azam Ishaq</text><text x="0" y="126" fill="#000000" font-size="5px" font-weight="bold" font-family="'Helvetica Neue', Helvetica, Arial-Unicode, Arial, Sans-serif">from the Noun Project</text></svg>