<svg xmlns="http://www.w3.org/2000/svg" viewBox="0 0 64 80" x="0px" y="0px"><title>speaker-sound-wifi</title><g><path d="M60,17H43V13H37v4H35V13H29v4H27V13H21v4H4a2,2,0,0,0-2,2V49a2,2,0,0,0,2,2H60a2,2,0,0,0,2-2V19A2,2,0,0,0,60,17ZM39,15h2v2H39Zm-8,0h2v2H31Zm-8,0h2v2H23ZM60,49H4V19H60Z"/><path d="M46,44A10,10,0,1,0,36,34,10.011,10.011,0,0,0,46,44Zm0-18a8,8,0,1,1-8,8A8.009,8.009,0,0,1,46,26Z"/><path d="M46,38a4,4,0,1,0-4-4A4,4,0,0,0,46,38Zm0-6a2,2,0,1,1-2,2A2,2,0,0,1,46,32Z"/><path d="M18,44A10,10,0,1,0,8,34,10.011,10.011,0,0,0,18,44Zm0-18a8,8,0,1,1-8,8A8.009,8.009,0,0,1,18,26Z"/><path d="M18,38a4,4,0,1,0-4-4A4,4,0,0,0,18,38Zm0-6a2,2,0,1,1-2,2A2,2,0,0,1,18,32Z"/></g><text x="0" y="79" fill="#000000" font-size="5px" font-weight="bold" font-family="'Helvetica Neue', Helvetica, Arial-Unicode, Arial, Sans-serif">Created by mynamepong</text><text x="0" y="84" fill="#000000" font-size="5px" font-weight="bold" font-family="'Helvetica Neue', Helvetica, Arial-Unicode, Arial, Sans-serif">from the Noun Project</text></svg>